<?xml version="1.0" encoding="utf-8" standalone="no"?>
<!DOCTYPE svg PUBLIC "-//W3C//DTD SVG 1.1//EN"
  "http://www.w3.org/Graphics/SVG/1.1/DTD/svg11.dtd">
<!-- Created with matplotlib (http://matplotlib.org/) -->
<svg height="345pt" version="1.1" viewBox="0 0 460 345" width="460pt" xmlns="http://www.w3.org/2000/svg" xmlns:xlink="http://www.w3.org/1999/xlink">
 <defs>
  <style type="text/css">
*{stroke-linecap:butt;stroke-linejoin:round;}
  </style>
 </defs>
 <g id="figure_1">
  <g id="patch_1">
   <path d="M 0 345.6 
L 460.8 345.6 
L 460.8 0 
L 0 0 
z
" style="fill:#ffffff;"/>
  </g>
  <g id="axes_1">
   <g id="patch_2">
    <path d="M 57.6 307.584 
L 414.72 307.584 
L 414.72 41.472 
L 57.6 41.472 
z
" style="fill:#ffffff;"/>
   </g>
   <g id="matplotlib.axis_1">
    <g id="xtick_1">
     <g id="line2d_1">
      <defs>
       <path d="M 0 0 
L 0 3.5 
" id="mc01b87511d" style="stroke:#000000;stroke-width:0.8;"/>
      </defs>
      <g>
       <use style="stroke:#000000;stroke-width:0.8;" x="57.6" xlink:href="#mc01b87511d" y="307.584"/>
      </g>
     </g>
     <g id="text_1">
      <!-- 0.0 -->
      <defs>
       <path d="M 31.78125 66.40625 
Q 24.171875 66.40625 20.328125 58.90625 
Q 16.5 51.421875 16.5 36.375 
Q 16.5 21.390625 20.328125 13.890625 
Q 24.171875 6.390625 31.78125 6.390625 
Q 39.453125 6.390625 43.28125 13.890625 
Q 47.125 21.390625 47.125 36.375 
Q 47.125 51.421875 43.28125 58.90625 
Q 39.453125 66.40625 31.78125 66.40625 
z
M 31.78125 74.21875 
Q 44.046875 74.21875 50.515625 64.515625 
Q 56.984375 54.828125 56.984375 36.375 
Q 56.984375 17.96875 50.515625 8.265625 
Q 44.046875 -1.421875 31.78125 -1.421875 
Q 19.53125 -1.421875 13.0625 8.265625 
Q 6.59375 17.96875 6.59375 36.375 
Q 6.59375 54.828125 13.0625 64.515625 
Q 19.53125 74.21875 31.78125 74.21875 
z
" id="DejaVuSans-30"/>
       <path d="M 10.6875 12.40625 
L 21 12.40625 
L 21 0 
L 10.6875 0 
z
" id="DejaVuSans-2e"/>
      </defs>
      <g transform="translate(49.648438 322.182437)scale(0.1 -0.1)">
       <use xlink:href="#DejaVuSans-30"/>
       <use x="63.623047" xlink:href="#DejaVuSans-2e"/>
       <use x="95.410156" xlink:href="#DejaVuSans-30"/>
      </g>
     </g>
    </g>
    <g id="xtick_2">
     <g id="line2d_2">
      <g>
       <use style="stroke:#000000;stroke-width:0.8;" x="129.024" xlink:href="#mc01b87511d" y="307.584"/>
      </g>
     </g>
     <g id="text_2">
      <!-- 0.2 -->
      <defs>
       <path d="M 19.1875 8.296875 
L 53.609375 8.296875 
L 53.609375 0 
L 7.328125 0 
L 7.328125 8.296875 
Q 12.9375 14.109375 22.625 23.890625 
Q 32.328125 33.6875 34.8125 36.53125 
Q 39.546875 41.84375 41.421875 45.53125 
Q 43.3125 49.21875 43.3125 52.78125 
Q 43.3125 58.59375 39.234375 62.25 
Q 35.15625 65.921875 28.609375 65.921875 
Q 23.96875 65.921875 18.8125 64.3125 
Q 13.671875 62.703125 7.8125 59.421875 
L 7.8125 69.390625 
Q 13.765625 71.78125 18.9375 73 
Q 24.125 74.21875 28.421875 74.21875 
Q 39.75 74.21875 46.484375 68.546875 
Q 53.21875 62.890625 53.21875 53.421875 
Q 53.21875 48.921875 51.53125 44.890625 
Q 49.859375 40.875 45.40625 35.40625 
Q 44.1875 33.984375 37.640625 27.21875 
Q 31.109375 20.453125 19.1875 8.296875 
z
" id="DejaVuSans-32"/>
      </defs>
      <g transform="translate(121.072438 322.182437)scale(0.1 -0.1)">
       <use xlink:href="#DejaVuSans-30"/>
       <use x="63.623047" xlink:href="#DejaVuSans-2e"/>
       <use x="95.410156" xlink:href="#DejaVuSans-32"/>
      </g>
     </g>
    </g>
    <g id="xtick_3">
     <g id="line2d_3">
      <g>
       <use style="stroke:#000000;stroke-width:0.8;" x="200.448" xlink:href="#mc01b87511d" y="307.584"/>
      </g>
     </g>
     <g id="text_3">
      <!-- 0.4 -->
      <defs>
       <path d="M 37.796875 64.3125 
L 12.890625 25.390625 
L 37.796875 25.390625 
z
M 35.203125 72.90625 
L 47.609375 72.90625 
L 47.609375 25.390625 
L 58.015625 25.390625 
L 58.015625 17.1875 
L 47.609375 17.1875 
L 47.609375 0 
L 37.796875 0 
L 37.796875 17.1875 
L 4.890625 17.1875 
L 4.890625 26.703125 
z
" id="DejaVuSans-34"/>
      </defs>
      <g transform="translate(192.496438 322.182437)scale(0.1 -0.1)">
       <use xlink:href="#DejaVuSans-30"/>
       <use x="63.623047" xlink:href="#DejaVuSans-2e"/>
       <use x="95.410156" xlink:href="#DejaVuSans-34"/>
      </g>
     </g>
    </g>
    <g id="xtick_4">
     <g id="line2d_4">
      <g>
       <use style="stroke:#000000;stroke-width:0.8;" x="271.872" xlink:href="#mc01b87511d" y="307.584"/>
      </g>
     </g>
     <g id="text_4">
      <!-- 0.6 -->
      <defs>
       <path d="M 33.015625 40.375 
Q 26.375 40.375 22.484375 35.828125 
Q 18.609375 31.296875 18.609375 23.390625 
Q 18.609375 15.53125 22.484375 10.953125 
Q 26.375 6.390625 33.015625 6.390625 
Q 39.65625 6.390625 43.53125 10.953125 
Q 47.40625 15.53125 47.40625 23.390625 
Q 47.40625 31.296875 43.53125 35.828125 
Q 39.65625 40.375 33.015625 40.375 
z
M 52.59375 71.296875 
L 52.59375 62.3125 
Q 48.875 64.0625 45.09375 64.984375 
Q 41.3125 65.921875 37.59375 65.921875 
Q 27.828125 65.921875 22.671875 59.328125 
Q 17.53125 52.734375 16.796875 39.40625 
Q 19.671875 43.65625 24.015625 45.921875 
Q 28.375 48.1875 33.59375 48.1875 
Q 44.578125 48.1875 50.953125 41.515625 
Q 57.328125 34.859375 57.328125 23.390625 
Q 57.328125 12.15625 50.6875 5.359375 
Q 44.046875 -1.421875 33.015625 -1.421875 
Q 20.359375 -1.421875 13.671875 8.265625 
Q 6.984375 17.96875 6.984375 36.375 
Q 6.984375 53.65625 15.1875 63.9375 
Q 23.390625 74.21875 37.203125 74.21875 
Q 40.921875 74.21875 44.703125 73.484375 
Q 48.484375 72.75 52.59375 71.296875 
z
" id="DejaVuSans-36"/>
      </defs>
      <g transform="translate(263.920438 322.182437)scale(0.1 -0.1)">
       <use xlink:href="#DejaVuSans-30"/>
       <use x="63.623047" xlink:href="#DejaVuSans-2e"/>
       <use x="95.410156" xlink:href="#DejaVuSans-36"/>
      </g>
     </g>
    </g>
    <g id="xtick_5">
     <g id="line2d_5">
      <g>
       <use style="stroke:#000000;stroke-width:0.8;" x="343.296" xlink:href="#mc01b87511d" y="307.584"/>
      </g>
     </g>
     <g id="text_5">
      <!-- 0.8 -->
      <defs>
       <path d="M 31.78125 34.625 
Q 24.75 34.625 20.71875 30.859375 
Q 16.703125 27.09375 16.703125 20.515625 
Q 16.703125 13.921875 20.71875 10.15625 
Q 24.75 6.390625 31.78125 6.390625 
Q 38.8125 6.390625 42.859375 10.171875 
Q 46.921875 13.96875 46.921875 20.515625 
Q 46.921875 27.09375 42.890625 30.859375 
Q 38.875 34.625 31.78125 34.625 
z
M 21.921875 38.8125 
Q 15.578125 40.375 12.03125 44.71875 
Q 8.5 49.078125 8.5 55.328125 
Q 8.5 64.0625 14.71875 69.140625 
Q 20.953125 74.21875 31.78125 74.21875 
Q 42.671875 74.21875 48.875 69.140625 
Q 55.078125 64.0625 55.078125 55.328125 
Q 55.078125 49.078125 51.53125 44.71875 
Q 48 40.375 41.703125 38.8125 
Q 48.828125 37.15625 52.796875 32.3125 
Q 56.78125 27.484375 56.78125 20.515625 
Q 56.78125 9.90625 50.3125 4.234375 
Q 43.84375 -1.421875 31.78125 -1.421875 
Q 19.734375 -1.421875 13.25 4.234375 
Q 6.78125 9.90625 6.78125 20.515625 
Q 6.78125 27.484375 10.78125 32.3125 
Q 14.796875 37.15625 21.921875 38.8125 
z
M 18.3125 54.390625 
Q 18.3125 48.734375 21.84375 45.5625 
Q 25.390625 42.390625 31.78125 42.390625 
Q 38.140625 42.390625 41.71875 45.5625 
Q 45.3125 48.734375 45.3125 54.390625 
Q 45.3125 60.0625 41.71875 63.234375 
Q 38.140625 66.40625 31.78125 66.40625 
Q 25.390625 66.40625 21.84375 63.234375 
Q 18.3125 60.0625 18.3125 54.390625 
z
" id="DejaVuSans-38"/>
      </defs>
      <g transform="translate(335.344438 322.182437)scale(0.1 -0.1)">
       <use xlink:href="#DejaVuSans-30"/>
       <use x="63.623047" xlink:href="#DejaVuSans-2e"/>
       <use x="95.410156" xlink:href="#DejaVuSans-38"/>
      </g>
     </g>
    </g>
    <g id="xtick_6">
     <g id="line2d_6">
      <g>
       <use style="stroke:#000000;stroke-width:0.8;" x="414.72" xlink:href="#mc01b87511d" y="307.584"/>
      </g>
     </g>
     <g id="text_6">
      <!-- 1.0 -->
      <defs>
       <path d="M 12.40625 8.296875 
L 28.515625 8.296875 
L 28.515625 63.921875 
L 10.984375 60.40625 
L 10.984375 69.390625 
L 28.421875 72.90625 
L 38.28125 72.90625 
L 38.28125 8.296875 
L 54.390625 8.296875 
L 54.390625 0 
L 12.40625 0 
z
" id="DejaVuSans-31"/>
      </defs>
      <g transform="translate(406.768438 322.182437)scale(0.1 -0.1)">
       <use xlink:href="#DejaVuSans-31"/>
       <use x="63.623047" xlink:href="#DejaVuSans-2e"/>
       <use x="95.410156" xlink:href="#DejaVuSans-30"/>
      </g>
     </g>
    </g>
    <g id="text_7">
     <!-- x -->
     <defs>
      <path d="M 54.890625 54.6875 
L 35.109375 28.078125 
L 55.90625 0 
L 45.3125 0 
L 29.390625 21.484375 
L 13.484375 0 
L 2.875 0 
L 24.125 28.609375 
L 4.6875 54.6875 
L 15.28125 54.6875 
L 29.78125 35.203125 
L 44.28125 54.6875 
z
" id="DejaVuSans-78"/>
     </defs>
     <g transform="translate(233.200625 335.860562)scale(0.1 -0.1)">
      <use xlink:href="#DejaVuSans-78"/>
     </g>
    </g>
   </g>
   <g id="matplotlib.axis_2">
    <g id="ytick_1">
     <g id="line2d_7">
      <defs>
       <path d="M 0 0 
L -3.5 0 
" id="mb48f6e10b8" style="stroke:#000000;stroke-width:0.8;"/>
      </defs>
      <g>
       <use style="stroke:#000000;stroke-width:0.8;" x="57.6" xlink:href="#mb48f6e10b8" y="287.113846"/>
      </g>
     </g>
     <g id="text_8">
      <!-- 0.0 -->
      <g transform="translate(34.696875 290.913065)scale(0.1 -0.1)">
       <use xlink:href="#DejaVuSans-30"/>
       <use x="63.623047" xlink:href="#DejaVuSans-2e"/>
       <use x="95.410156" xlink:href="#DejaVuSans-30"/>
      </g>
     </g>
    </g>
    <g id="ytick_2">
     <g id="line2d_8">
      <g>
       <use style="stroke:#000000;stroke-width:0.8;" x="57.6" xlink:href="#mb48f6e10b8" y="246.173538"/>
      </g>
     </g>
     <g id="text_9">
      <!-- 0.2 -->
      <g transform="translate(34.696875 249.972757)scale(0.1 -0.1)">
       <use xlink:href="#DejaVuSans-30"/>
       <use x="63.623047" xlink:href="#DejaVuSans-2e"/>
       <use x="95.410156" xlink:href="#DejaVuSans-32"/>
      </g>
     </g>
    </g>
    <g id="ytick_3">
     <g id="line2d_9">
      <g>
       <use style="stroke:#000000;stroke-width:0.8;" x="57.6" xlink:href="#mb48f6e10b8" y="205.233231"/>
      </g>
     </g>
     <g id="text_10">
      <!-- 0.4 -->
      <g transform="translate(34.696875 209.03245)scale(0.1 -0.1)">
       <use xlink:href="#DejaVuSans-30"/>
       <use x="63.623047" xlink:href="#DejaVuSans-2e"/>
       <use x="95.410156" xlink:href="#DejaVuSans-34"/>
      </g>
     </g>
    </g>
    <g id="ytick_4">
     <g id="line2d_10">
      <g>
       <use style="stroke:#000000;stroke-width:0.8;" x="57.6" xlink:href="#mb48f6e10b8" y="164.292923"/>
      </g>
     </g>
     <g id="text_11">
      <!-- 0.6 -->
      <g transform="translate(34.696875 168.092142)scale(0.1 -0.1)">
       <use xlink:href="#DejaVuSans-30"/>
       <use x="63.623047" xlink:href="#DejaVuSans-2e"/>
       <use x="95.410156" xlink:href="#DejaVuSans-36"/>
      </g>
     </g>
    </g>
    <g id="ytick_5">
     <g id="line2d_11">
      <g>
       <use style="stroke:#000000;stroke-width:0.8;" x="57.6" xlink:href="#mb48f6e10b8" y="123.352615"/>
      </g>
     </g>
     <g id="text_12">
      <!-- 0.8 -->
      <g transform="translate(34.696875 127.151834)scale(0.1 -0.1)">
       <use xlink:href="#DejaVuSans-30"/>
       <use x="63.623047" xlink:href="#DejaVuSans-2e"/>
       <use x="95.410156" xlink:href="#DejaVuSans-38"/>
      </g>
     </g>
    </g>
    <g id="ytick_6">
     <g id="line2d_12">
      <g>
       <use style="stroke:#000000;stroke-width:0.8;" x="57.6" xlink:href="#mb48f6e10b8" y="82.412308"/>
      </g>
     </g>
     <g id="text_13">
      <!-- 1.0 -->
      <g transform="translate(34.696875 86.211526)scale(0.1 -0.1)">
       <use xlink:href="#DejaVuSans-31"/>
       <use x="63.623047" xlink:href="#DejaVuSans-2e"/>
       <use x="95.410156" xlink:href="#DejaVuSans-30"/>
      </g>
     </g>
    </g>
    <g id="ytick_7">
     <g id="line2d_13">
      <g>
       <use style="stroke:#000000;stroke-width:0.8;" x="57.6" xlink:href="#mb48f6e10b8" y="41.472"/>
      </g>
     </g>
     <g id="text_14">
      <!-- 1.2 -->
      <g transform="translate(34.696875 45.271219)scale(0.1 -0.1)">
       <use xlink:href="#DejaVuSans-31"/>
       <use x="63.623047" xlink:href="#DejaVuSans-2e"/>
       <use x="95.410156" xlink:href="#DejaVuSans-32"/>
      </g>
     </g>
    </g>
    <g id="text_15">
     <!-- y -->
     <defs>
      <path d="M 32.171875 -5.078125 
Q 28.375 -14.84375 24.75 -17.8125 
Q 21.140625 -20.796875 15.09375 -20.796875 
L 7.90625 -20.796875 
L 7.90625 -13.28125 
L 13.1875 -13.28125 
Q 16.890625 -13.28125 18.9375 -11.515625 
Q 21 -9.765625 23.484375 -3.21875 
L 25.09375 0.875 
L 2.984375 54.6875 
L 12.5 54.6875 
L 29.59375 11.921875 
L 46.6875 54.6875 
L 56.203125 54.6875 
z
" id="DejaVuSans-79"/>
     </defs>
     <g transform="translate(28.617188 177.487375)rotate(-90)scale(0.1 -0.1)">
      <use xlink:href="#DejaVuSans-79"/>
     </g>
    </g>
   </g>
   <g id="line2d_14">
    <path clip-path="url(#p9807360c90)" d="M 461.8 93.276054 
L 451.864039 91.509665 
L 440.09956 89.609526 
L 428.335082 87.920991 
L 416.570603 86.449782 
L 404.806124 85.200911 
L 393.041645 84.178653 
L 381.277167 83.386518 
L 369.512688 82.827237 
L 357.748209 82.502742 
L 345.98373 82.414154 
L 334.219252 82.561779 
L 322.454773 82.945108 
L 310.690294 83.562815 
L 298.925816 84.412767 
L 287.161337 85.492038 
L 275.396858 86.796924 
L 263.632379 88.322962 
L 251.867901 90.064961 
L 240.103422 92.017027 
L 228.338943 94.172597 
L 216.574464 96.524477 
L 204.809986 99.064879 
L 190.104387 102.492746 
L 175.398789 106.184747 
L 160.693191 110.122427 
L 145.987592 114.286403 
L 131.281994 118.65652 
L 113.635276 124.143499 
L 95.988558 129.860704 
L 75.40072 136.772097 
L 51.871762 144.916522 
L 19.519446 156.38889 
L -1 163.740113 
L -1 163.740113 
" style="fill:none;stroke:#1f77b4;stroke-linecap:square;stroke-width:1.5;"/>
   </g>
   <g id="line2d_15">
    <path clip-path="url(#p9807360c90)" d="M -1 286.411797 
L 5.78156 285.94761 
L 11.758832 285.325212 
L 16.988946 284.552548 
L 21.4719 283.668491 
L 25.581275 282.633483 
L 29.31707 281.467965 
L 32.679286 280.204617 
L 36.041501 278.707844 
L 39.403717 276.946408 
L 42.392353 275.132026 
L 45.38099 273.058912 
L 48.369626 270.703052 
L 51.358262 268.040577 
L 54.346898 265.048261 
L 57.335534 261.704089 
L 60.324171 257.987879 
L 63.312807 253.881963 
L 66.301443 249.371899 
L 69.290079 244.447208 
L 72.278715 239.102122 
L 75.267351 233.336304 
L 78.629567 226.354315 
L 81.991783 218.865835 
L 85.727578 209.98844 
L 89.836953 199.616105 
L 94.693487 186.681877 
L 101.044339 169.032685 
L 112.251724 137.777425 
L 116.734679 126.025484 
L 120.470474 116.885053 
L 123.45911 110.122427 
L 126.074167 104.677409 
L 128.689223 99.728471 
L 130.930701 95.918519 
L 133.172178 92.537112 
L 135.040075 90.064961 
L 136.907973 87.920991 
L 138.775871 86.11654 
L 140.643768 84.661218 
L 142.138086 83.753631 
L 143.632404 83.077632 
L 145.126723 82.635552 
L 146.621041 82.428921 
L 148.115359 82.458453 
L 149.609677 82.724045 
L 151.103995 83.224779 
L 152.598313 83.958925 
L 154.092631 84.923951 
L 155.586949 86.11654 
L 157.454847 87.920991 
L 159.322744 90.064961 
L 161.190642 92.537112 
L 163.432119 95.918519 
L 165.673596 99.728471 
L 168.288653 104.677409 
L 170.90371 110.122427 
L 173.892346 116.885053 
L 177.254562 125.081379 
L 180.990357 134.774066 
L 185.846891 148.021292 
L 204.152287 198.644949 
L 208.261662 209.0705 
L 211.997457 218.003711 
L 215.733253 226.354315 
L 219.095468 233.336304 
L 222.457684 239.793315 
L 225.44632 245.085716 
L 228.434956 249.958159 
L 231.423593 254.417044 
L 234.412229 258.473383 
L 237.400865 262.142063 
L 240.389501 265.441106 
L 243.378137 268.390957 
L 246.366774 271.013817 
L 249.35541 273.333021 
L 252.344046 275.372482 
L 255.332682 277.156201 
L 258.694898 278.886636 
L 262.057114 280.355963 
L 265.419329 281.595221 
L 269.155125 282.737627 
L 273.264499 283.751246 
L 277.747454 284.616232 
L 282.603987 285.325212 
L 288.20768 285.915368 
L 294.932112 286.388318 
L 303.150861 286.733259 
L 314.358247 286.964593 
L 332.290064 287.084684 
L 333.784382 287.088584 
L 333.784382 287.088584 
" style="fill:none;stroke:#ff7f0e;stroke-linecap:square;stroke-width:1.5;"/>
   </g>
   <g id="line2d_16">
    <path clip-path="url(#p9807360c90)" d="M -1 184.048746 
L 17.84413 174.279437 
L 85.834026 138.786732 
L 101.831649 130.833345 
L 115.829569 124.143499 
L 127.827786 118.65652 
L 139.826003 113.436462 
L 149.824517 109.316155 
L 159.823031 105.426088 
L 169.821546 101.78547 
L 179.82006 98.412551 
L 189.818574 95.324471 
L 197.817385 93.06981 
L 205.816197 91.015131 
L 213.815008 89.167319 
L 221.813819 87.532606 
L 229.812631 86.11654 
L 237.811442 84.923951 
L 245.810253 83.958925 
L 253.809065 83.224779 
L 261.807876 82.724045 
L 269.806687 82.458453 
L 277.805499 82.428921 
L 285.80431 82.635552 
L 293.803121 83.077632 
L 301.801933 83.753631 
L 309.800744 84.661218 
L 317.799556 85.79727 
L 325.798367 87.157891 
L 333.797178 88.738434 
L 341.79599 90.533529 
L 349.794801 92.537112 
L 357.793612 94.742457 
L 365.792424 97.14222 
L 375.790938 100.403192 
L 385.789452 103.938861 
L 395.787966 107.731404 
L 405.78648 111.761975 
L 415.784995 116.010864 
L 427.783212 121.368921 
L 439.781429 126.975641 
L 453.779348 133.781708 
L 461.8 137.788448 
L 461.8 137.788448 
" style="fill:none;stroke:#2ca02c;stroke-linecap:square;stroke-width:1.5;"/>
   </g>
   <g id="line2d_17">
    <path clip-path="url(#p9807360c90)" d="M 68.496213 287.088584 
L 100.256298 286.927078 
L 116.943801 286.630677 
L 128.786544 286.204382 
L 137.937755 285.666219 
L 146.012353 284.96968 
L 153.010338 284.139366 
L 158.93171 283.227351 
L 164.314775 282.195075 
L 169.69784 280.933371 
L 174.542599 279.570019 
L 179.387358 277.959576 
L 183.69381 276.294818 
L 188.000262 274.386216 
L 192.306715 272.209889 
L 196.07486 270.067101 
L 199.843006 267.685041 
L 203.611152 265.048261 
L 207.379297 262.142063 
L 211.147443 258.952826 
L 214.915589 255.468346 
L 218.683734 251.678206 
L 222.45188 247.574149 
L 226.220026 243.15046 
L 229.988172 238.404346 
L 233.756317 233.336304 
L 238.062769 227.15554 
L 242.369222 220.572355 
L 246.675674 213.606548 
L 251.520433 205.347188 
L 256.903498 195.705904 
L 262.82487 184.639876 
L 270.899468 169.032685 
L 285.97205 139.799846 
L 291.355116 129.860704 
L 296.199874 121.368921 
L 300.506327 114.286403 
L 304.274472 108.519095 
L 307.504312 103.938861 
L 310.734151 99.728471 
L 313.96399 95.918519 
L 316.655523 93.06981 
L 319.347055 90.533529 
L 322.038588 88.322962 
L 324.73012 86.449782 
L 326.883347 85.200911 
L 329.036573 84.178653 
L 331.189799 83.386518 
L 333.343025 82.827237 
L 335.496251 82.502742 
L 337.649477 82.414154 
L 339.802703 82.561779 
L 341.955929 82.945108 
L 344.109155 83.562815 
L 346.262382 84.412767 
L 348.415608 85.492038 
L 350.568834 86.796924 
L 352.72206 88.322962 
L 355.413593 90.533529 
L 358.105125 93.06981 
L 360.796658 95.918519 
L 363.48819 99.064879 
L 366.71803 103.210592 
L 369.947869 107.731404 
L 373.716015 113.436462 
L 377.48416 119.553462 
L 381.790612 126.975641 
L 386.635371 135.770919 
L 392.556743 146.983866 
L 402.784567 166.927006 
L 412.474085 185.662355 
L 418.933763 197.669468 
L 424.316828 207.219006 
L 429.161587 215.382502 
L 434.006346 223.087115 
L 438.312798 229.521311 
L 442.61925 235.547564 
L 446.925702 241.155942 
L 450.693848 245.717655 
L 454.461994 249.958159 
L 458.230139 253.881963 
L 461.8 257.312946 
L 461.8 257.312946 
" style="fill:none;stroke:#d62728;stroke-linecap:square;stroke-width:1.5;"/>
   </g>
   <g id="line2d_18">
    <path clip-path="url(#p9807360c90)" d="M 461.8 263.224482 
L 453.257656 260.810653 
L 443.992347 257.987879 
L 434.727038 254.945829 
L 425.46173 251.678206 
L 416.196421 248.179909 
L 406.931112 244.447208 
L 397.665803 240.477923 
L 388.400494 236.271594 
L 379.135186 231.829644 
L 369.869877 227.15554 
L 360.604568 222.254924 
L 349.795041 216.261991 
L 338.985514 209.98844 
L 328.175987 203.455661 
L 315.822242 195.705904 
L 303.468497 187.698326 
L 288.026316 177.409927 
L 264.863044 161.655558 
L 240.155554 144.916522 
L 226.257591 135.770919 
L 215.448064 128.893424 
L 204.638537 122.287098 
L 195.373228 116.885053 
L 186.107919 111.761975 
L 178.386829 107.731404 
L 170.665738 103.938861 
L 162.944647 100.403192 
L 155.223557 97.14222 
L 147.502466 94.172597 
L 141.325593 92.017027 
L 135.148721 90.064961 
L 128.971848 88.322962 
L 122.794976 86.796924 
L 116.618103 85.492038 
L 110.441231 84.412767 
L 104.264358 83.562815 
L 98.087486 82.945108 
L 91.910613 82.561779 
L 85.733741 82.414154 
L 79.556868 82.502742 
L 73.379996 82.827237 
L 67.203123 83.386518 
L 61.026251 84.178653 
L 54.849378 85.200911 
L 48.672505 86.449782 
L 42.495633 87.920991 
L 36.31876 89.609526 
L 30.141888 91.509665 
L 23.965015 93.615009 
L 17.788143 95.918519 
L 10.067052 99.064879 
L 2.345962 102.492746 
L -1 104.062027 
L -1 104.062027 
" style="fill:none;stroke:#9467bd;stroke-linecap:square;stroke-width:1.5;"/>
   </g>
   <g id="line2d_19">
    <path clip-path="url(#p9807360c90)" d="M -1 230.512161 
L 7.021509 226.354315 
L 16.137887 221.416656 
L 26.77366 215.382502 
L 37.409434 209.0705 
L 48.045207 202.502708 
L 60.200377 194.718015 
L 73.874943 185.662355 
L 89.068905 175.324671 
L 119.456829 154.287924 
L 137.689584 141.836808 
L 149.844753 133.781708 
L 160.480527 126.975641 
L 169.596904 121.368921 
L 178.713281 116.010864 
L 187.829659 110.937754 
L 195.42664 106.953237 
L 203.023621 103.210592 
L 210.620602 99.728471 
L 218.217583 96.524477 
L 224.295168 94.172597 
L 230.372753 92.017027 
L 236.450338 90.064961 
L 242.527922 88.322962 
L 248.605507 86.796924 
L 254.683092 85.492038 
L 260.760677 84.412767 
L 266.838262 83.562815 
L 272.915847 82.945108 
L 278.993432 82.561779 
L 285.071016 82.414154 
L 291.148601 82.502742 
L 297.226186 82.827237 
L 303.303771 83.386518 
L 309.381356 84.178653 
L 315.458941 85.200911 
L 321.536526 86.449782 
L 327.61411 87.920991 
L 333.691695 89.609526 
L 339.76928 91.509665 
L 345.846865 93.615009 
L 351.92445 95.918519 
L 359.521431 99.064879 
L 367.118412 102.492746 
L 374.715393 106.184747 
L 382.312374 110.122427 
L 389.909355 114.286403 
L 399.025732 119.553462 
L 408.14211 125.081379 
L 418.777883 131.811175 
L 430.933053 139.799846 
L 444.607619 149.060998 
L 461.8 160.933627 
L 461.8 160.933627 
" style="fill:none;stroke:#8c564b;stroke-linecap:square;stroke-width:1.5;"/>
   </g>
   <g id="line2d_20">
    <path clip-path="url(#p9807360c90)" d="M 56.553979 287.088584 
L 81.062947 286.927078 
L 93.940541 286.630677 
L 103.079479 286.204382 
L 110.141385 285.666219 
L 116.372478 284.96968 
L 121.77276 284.139366 
L 126.342228 283.227351 
L 130.496291 282.195075 
L 134.650353 280.933371 
L 138.38901 279.570019 
L 142.127666 277.959576 
L 145.450916 276.294818 
L 148.774166 274.386216 
L 152.097416 272.209889 
L 155.420666 269.741822 
L 158.743916 266.958327 
L 161.65176 264.246029 
L 164.559603 261.260298 
L 167.467447 257.987879 
L 170.375291 254.417044 
L 173.698541 249.958159 
L 177.021791 245.085716 
L 180.345041 239.793315 
L 183.668291 234.079904 
L 186.991541 227.950467 
L 190.730197 220.572355 
L 194.468853 212.710202 
L 198.622916 203.455661 
L 203.192384 192.730522 
L 209.008072 178.449682 
L 228.532165 129.860704 
L 232.686228 120.457652 
L 236.009478 113.436462 
L 239.332728 106.953237 
L 242.240572 101.78547 
L 244.733009 97.771621 
L 247.225447 94.172597 
L 249.302478 91.509665 
L 251.379509 89.167319 
L 253.45654 87.157891 
L 255.533571 85.492038 
L 257.195196 84.412767 
L 258.856821 83.562815 
L 260.518446 82.945108 
L 262.180071 82.561779 
L 263.841696 82.414154 
L 265.503321 82.502742 
L 267.164946 82.827237 
L 268.826571 83.386518 
L 270.488196 84.178653 
L 272.149821 85.200911 
L 273.811446 86.449782 
L 275.888478 88.322962 
L 277.965509 90.533529 
L 280.04254 93.06981 
L 282.119571 95.918519 
L 284.612009 99.728471 
L 287.104446 103.938861 
L 290.01229 109.316155 
L 292.920134 115.144592 
L 296.243384 122.287098 
L 299.98204 130.833345 
L 304.551509 141.836808 
L 311.198009 158.493747 
L 322.829384 187.698326 
L 328.229665 200.582843 
L 332.799134 210.901083 
L 336.953196 219.722066 
L 340.691852 227.15554 
L 344.430509 234.079904 
L 347.753758 239.793315 
L 351.077008 245.085716 
L 354.400258 249.958159 
L 357.723508 254.417044 
L 361.046758 258.473383 
L 364.370008 262.142063 
L 367.693258 265.441106 
L 371.016508 268.390957 
L 374.339758 271.013817 
L 377.663008 273.333021 
L 380.986258 275.372482 
L 384.309508 277.156201 
L 387.632758 278.707844 
L 391.371414 280.204617 
L 395.110071 281.467965 
L 399.264133 282.633483 
L 403.833602 283.668491 
L 408.818477 284.552548 
L 414.218758 285.277884 
L 420.449852 285.882325 
L 427.927164 286.367345 
L 437.066102 286.721636 
L 449.528289 286.959701 
L 461.8 287.056164 
L 461.8 287.056164 
" style="fill:none;stroke:#e377c2;stroke-linecap:square;stroke-width:1.5;"/>
   </g>
   <g id="patch_3">
    <path d="M 57.6 307.584 
L 57.6 41.472 
" style="fill:none;stroke:#000000;stroke-linecap:square;stroke-linejoin:miter;stroke-width:0.8;"/>
   </g>
   <g id="patch_4">
    <path d="M 414.72 307.584 
L 414.72 41.472 
" style="fill:none;stroke:#000000;stroke-linecap:square;stroke-linejoin:miter;stroke-width:0.8;"/>
   </g>
   <g id="patch_5">
    <path d="M 57.6 307.584 
L 414.72 307.584 
" style="fill:none;stroke:#000000;stroke-linecap:square;stroke-linejoin:miter;stroke-width:0.8;"/>
   </g>
   <g id="patch_6">
    <path d="M 57.6 41.472 
L 414.72 41.472 
" style="fill:none;stroke:#000000;stroke-linecap:square;stroke-linejoin:miter;stroke-width:0.8;"/>
   </g>
   <g id="text_16">
    <!-- Bases -->
    <defs>
     <path d="M 19.671875 34.8125 
L 19.671875 8.109375 
L 35.5 8.109375 
Q 43.453125 8.109375 47.28125 11.40625 
Q 51.125 14.703125 51.125 21.484375 
Q 51.125 28.328125 47.28125 31.5625 
Q 43.453125 34.8125 35.5 34.8125 
z
M 19.671875 64.796875 
L 19.671875 42.828125 
L 34.28125 42.828125 
Q 41.5 42.828125 45.03125 45.53125 
Q 48.578125 48.25 48.578125 53.8125 
Q 48.578125 59.328125 45.03125 62.0625 
Q 41.5 64.796875 34.28125 64.796875 
z
M 9.8125 72.90625 
L 35.015625 72.90625 
Q 46.296875 72.90625 52.390625 68.21875 
Q 58.5 63.53125 58.5 54.890625 
Q 58.5 48.1875 55.375 44.234375 
Q 52.25 40.28125 46.1875 39.3125 
Q 53.46875 37.75 57.5 32.78125 
Q 61.53125 27.828125 61.53125 20.40625 
Q 61.53125 10.640625 54.890625 5.3125 
Q 48.25 0 35.984375 0 
L 9.8125 0 
z
" id="DejaVuSans-42"/>
     <path d="M 34.28125 27.484375 
Q 23.390625 27.484375 19.1875 25 
Q 14.984375 22.515625 14.984375 16.5 
Q 14.984375 11.71875 18.140625 8.90625 
Q 21.296875 6.109375 26.703125 6.109375 
Q 34.1875 6.109375 38.703125 11.40625 
Q 43.21875 16.703125 43.21875 25.484375 
L 43.21875 27.484375 
z
M 52.203125 31.203125 
L 52.203125 0 
L 43.21875 0 
L 43.21875 8.296875 
Q 40.140625 3.328125 35.546875 0.953125 
Q 30.953125 -1.421875 24.3125 -1.421875 
Q 15.921875 -1.421875 10.953125 3.296875 
Q 6 8.015625 6 15.921875 
Q 6 25.140625 12.171875 29.828125 
Q 18.359375 34.515625 30.609375 34.515625 
L 43.21875 34.515625 
L 43.21875 35.40625 
Q 43.21875 41.609375 39.140625 45 
Q 35.0625 48.390625 27.6875 48.390625 
Q 23 48.390625 18.546875 47.265625 
Q 14.109375 46.140625 10.015625 43.890625 
L 10.015625 52.203125 
Q 14.9375 54.109375 19.578125 55.046875 
Q 24.21875 56 28.609375 56 
Q 40.484375 56 46.34375 49.84375 
Q 52.203125 43.703125 52.203125 31.203125 
z
" id="DejaVuSans-61"/>
     <path d="M 44.28125 53.078125 
L 44.28125 44.578125 
Q 40.484375 46.53125 36.375 47.5 
Q 32.28125 48.484375 27.875 48.484375 
Q 21.1875 48.484375 17.84375 46.4375 
Q 14.5 44.390625 14.5 40.28125 
Q 14.5 37.15625 16.890625 35.375 
Q 19.28125 33.59375 26.515625 31.984375 
L 29.59375 31.296875 
Q 39.15625 29.25 43.1875 25.515625 
Q 47.21875 21.78125 47.21875 15.09375 
Q 47.21875 7.46875 41.1875 3.015625 
Q 35.15625 -1.421875 24.609375 -1.421875 
Q 20.21875 -1.421875 15.453125 -0.5625 
Q 10.6875 0.296875 5.421875 2 
L 5.421875 11.28125 
Q 10.40625 8.6875 15.234375 7.390625 
Q 20.0625 6.109375 24.8125 6.109375 
Q 31.15625 6.109375 34.5625 8.28125 
Q 37.984375 10.453125 37.984375 14.40625 
Q 37.984375 18.0625 35.515625 20.015625 
Q 33.0625 21.96875 24.703125 23.78125 
L 21.578125 24.515625 
Q 13.234375 26.265625 9.515625 29.90625 
Q 5.8125 33.546875 5.8125 39.890625 
Q 5.8125 47.609375 11.28125 51.796875 
Q 16.75 56 26.8125 56 
Q 31.78125 56 36.171875 55.265625 
Q 40.578125 54.546875 44.28125 53.078125 
z
" id="DejaVuSans-73"/>
     <path d="M 56.203125 29.59375 
L 56.203125 25.203125 
L 14.890625 25.203125 
Q 15.484375 15.921875 20.484375 11.0625 
Q 25.484375 6.203125 34.421875 6.203125 
Q 39.59375 6.203125 44.453125 7.46875 
Q 49.3125 8.734375 54.109375 11.28125 
L 54.109375 2.78125 
Q 49.265625 0.734375 44.1875 -0.34375 
Q 39.109375 -1.421875 33.890625 -1.421875 
Q 20.796875 -1.421875 13.15625 6.1875 
Q 5.515625 13.8125 5.515625 26.8125 
Q 5.515625 40.234375 12.765625 48.109375 
Q 20.015625 56 32.328125 56 
Q 43.359375 56 49.78125 48.890625 
Q 56.203125 41.796875 56.203125 29.59375 
z
M 47.21875 32.234375 
Q 47.125 39.59375 43.09375 43.984375 
Q 39.0625 48.390625 32.421875 48.390625 
Q 24.90625 48.390625 20.390625 44.140625 
Q 15.875 39.890625 15.1875 32.171875 
z
" id="DejaVuSans-65"/>
    </defs>
    <g transform="translate(218.423438 35.472)scale(0.12 -0.12)">
     <use xlink:href="#DejaVuSans-42"/>
     <use x="68.603516" xlink:href="#DejaVuSans-61"/>
     <use x="129.882812" xlink:href="#DejaVuSans-73"/>
     <use x="181.982422" xlink:href="#DejaVuSans-65"/>
     <use x="243.505859" xlink:href="#DejaVuSans-73"/>
    </g>
   </g>
  </g>
 </g>
 <defs>
  <clipPath id="p9807360c90">
   <rect height="266.112" width="357.12" x="57.6" y="41.472"/>
  </clipPath>
 </defs>
</svg>
