<?xml version="1.0" encoding="utf-8" standalone="no"?>
<!DOCTYPE svg PUBLIC "-//W3C//DTD SVG 1.1//EN"
  "http://www.w3.org/Graphics/SVG/1.1/DTD/svg11.dtd">
<!-- Created with matplotlib (http://matplotlib.org/) -->
<svg height="345pt" version="1.1" viewBox="0 0 460 345" width="460pt" xmlns="http://www.w3.org/2000/svg" xmlns:xlink="http://www.w3.org/1999/xlink">
 <defs>
  <style type="text/css">
*{stroke-linecap:butt;stroke-linejoin:round;}
  </style>
 </defs>
 <g id="figure_1">
  <g id="patch_1">
   <path d="M 0 345.6 
L 460.8 345.6 
L 460.8 0 
L 0 0 
z
" style="fill:#ffffff;"/>
  </g>
  <g id="axes_1">
   <g id="patch_2">
    <path d="M 57.6 307.584 
L 414.72 307.584 
L 414.72 41.472 
L 57.6 41.472 
z
" style="fill:#ffffff;"/>
   </g>
   <g id="matplotlib.axis_1">
    <g id="xtick_1">
     <g id="line2d_1">
      <defs>
       <path d="M 0 0 
L 0 3.5 
" id="ma545e59b07" style="stroke:#000000;stroke-width:0.8;"/>
      </defs>
      <g>
       <use style="stroke:#000000;stroke-width:0.8;" x="73.832727" xlink:href="#ma545e59b07" y="307.584"/>
      </g>
     </g>
     <g id="text_1">
      <!-- 0.0 -->
      <defs>
       <path d="M 31.78125 66.40625 
Q 24.171875 66.40625 20.328125 58.90625 
Q 16.5 51.421875 16.5 36.375 
Q 16.5 21.390625 20.328125 13.890625 
Q 24.171875 6.390625 31.78125 6.390625 
Q 39.453125 6.390625 43.28125 13.890625 
Q 47.125 21.390625 47.125 36.375 
Q 47.125 51.421875 43.28125 58.90625 
Q 39.453125 66.40625 31.78125 66.40625 
z
M 31.78125 74.21875 
Q 44.046875 74.21875 50.515625 64.515625 
Q 56.984375 54.828125 56.984375 36.375 
Q 56.984375 17.96875 50.515625 8.265625 
Q 44.046875 -1.421875 31.78125 -1.421875 
Q 19.53125 -1.421875 13.0625 8.265625 
Q 6.59375 17.96875 6.59375 36.375 
Q 6.59375 54.828125 13.0625 64.515625 
Q 19.53125 74.21875 31.78125 74.21875 
z
" id="DejaVuSans-30"/>
       <path d="M 10.6875 12.40625 
L 21 12.40625 
L 21 0 
L 10.6875 0 
z
" id="DejaVuSans-2e"/>
      </defs>
      <g transform="translate(65.881165 322.182437)scale(0.1 -0.1)">
       <use xlink:href="#DejaVuSans-30"/>
       <use x="63.623047" xlink:href="#DejaVuSans-2e"/>
       <use x="95.410156" xlink:href="#DejaVuSans-30"/>
      </g>
     </g>
    </g>
    <g id="xtick_2">
     <g id="line2d_2">
      <g>
       <use style="stroke:#000000;stroke-width:0.8;" x="138.763636" xlink:href="#ma545e59b07" y="307.584"/>
      </g>
     </g>
     <g id="text_2">
      <!-- 0.2 -->
      <defs>
       <path d="M 19.1875 8.296875 
L 53.609375 8.296875 
L 53.609375 0 
L 7.328125 0 
L 7.328125 8.296875 
Q 12.9375 14.109375 22.625 23.890625 
Q 32.328125 33.6875 34.8125 36.53125 
Q 39.546875 41.84375 41.421875 45.53125 
Q 43.3125 49.21875 43.3125 52.78125 
Q 43.3125 58.59375 39.234375 62.25 
Q 35.15625 65.921875 28.609375 65.921875 
Q 23.96875 65.921875 18.8125 64.3125 
Q 13.671875 62.703125 7.8125 59.421875 
L 7.8125 69.390625 
Q 13.765625 71.78125 18.9375 73 
Q 24.125 74.21875 28.421875 74.21875 
Q 39.75 74.21875 46.484375 68.546875 
Q 53.21875 62.890625 53.21875 53.421875 
Q 53.21875 48.921875 51.53125 44.890625 
Q 49.859375 40.875 45.40625 35.40625 
Q 44.1875 33.984375 37.640625 27.21875 
Q 31.109375 20.453125 19.1875 8.296875 
z
" id="DejaVuSans-32"/>
      </defs>
      <g transform="translate(130.812074 322.182437)scale(0.1 -0.1)">
       <use xlink:href="#DejaVuSans-30"/>
       <use x="63.623047" xlink:href="#DejaVuSans-2e"/>
       <use x="95.410156" xlink:href="#DejaVuSans-32"/>
      </g>
     </g>
    </g>
    <g id="xtick_3">
     <g id="line2d_3">
      <g>
       <use style="stroke:#000000;stroke-width:0.8;" x="203.694545" xlink:href="#ma545e59b07" y="307.584"/>
      </g>
     </g>
     <g id="text_3">
      <!-- 0.4 -->
      <defs>
       <path d="M 37.796875 64.3125 
L 12.890625 25.390625 
L 37.796875 25.390625 
z
M 35.203125 72.90625 
L 47.609375 72.90625 
L 47.609375 25.390625 
L 58.015625 25.390625 
L 58.015625 17.1875 
L 47.609375 17.1875 
L 47.609375 0 
L 37.796875 0 
L 37.796875 17.1875 
L 4.890625 17.1875 
L 4.890625 26.703125 
z
" id="DejaVuSans-34"/>
      </defs>
      <g transform="translate(195.742983 322.182437)scale(0.1 -0.1)">
       <use xlink:href="#DejaVuSans-30"/>
       <use x="63.623047" xlink:href="#DejaVuSans-2e"/>
       <use x="95.410156" xlink:href="#DejaVuSans-34"/>
      </g>
     </g>
    </g>
    <g id="xtick_4">
     <g id="line2d_4">
      <g>
       <use style="stroke:#000000;stroke-width:0.8;" x="268.625455" xlink:href="#ma545e59b07" y="307.584"/>
      </g>
     </g>
     <g id="text_4">
      <!-- 0.6 -->
      <defs>
       <path d="M 33.015625 40.375 
Q 26.375 40.375 22.484375 35.828125 
Q 18.609375 31.296875 18.609375 23.390625 
Q 18.609375 15.53125 22.484375 10.953125 
Q 26.375 6.390625 33.015625 6.390625 
Q 39.65625 6.390625 43.53125 10.953125 
Q 47.40625 15.53125 47.40625 23.390625 
Q 47.40625 31.296875 43.53125 35.828125 
Q 39.65625 40.375 33.015625 40.375 
z
M 52.59375 71.296875 
L 52.59375 62.3125 
Q 48.875 64.0625 45.09375 64.984375 
Q 41.3125 65.921875 37.59375 65.921875 
Q 27.828125 65.921875 22.671875 59.328125 
Q 17.53125 52.734375 16.796875 39.40625 
Q 19.671875 43.65625 24.015625 45.921875 
Q 28.375 48.1875 33.59375 48.1875 
Q 44.578125 48.1875 50.953125 41.515625 
Q 57.328125 34.859375 57.328125 23.390625 
Q 57.328125 12.15625 50.6875 5.359375 
Q 44.046875 -1.421875 33.015625 -1.421875 
Q 20.359375 -1.421875 13.671875 8.265625 
Q 6.984375 17.96875 6.984375 36.375 
Q 6.984375 53.65625 15.1875 63.9375 
Q 23.390625 74.21875 37.203125 74.21875 
Q 40.921875 74.21875 44.703125 73.484375 
Q 48.484375 72.75 52.59375 71.296875 
z
" id="DejaVuSans-36"/>
      </defs>
      <g transform="translate(260.673892 322.182437)scale(0.1 -0.1)">
       <use xlink:href="#DejaVuSans-30"/>
       <use x="63.623047" xlink:href="#DejaVuSans-2e"/>
       <use x="95.410156" xlink:href="#DejaVuSans-36"/>
      </g>
     </g>
    </g>
    <g id="xtick_5">
     <g id="line2d_5">
      <g>
       <use style="stroke:#000000;stroke-width:0.8;" x="333.556364" xlink:href="#ma545e59b07" y="307.584"/>
      </g>
     </g>
     <g id="text_5">
      <!-- 0.8 -->
      <defs>
       <path d="M 31.78125 34.625 
Q 24.75 34.625 20.71875 30.859375 
Q 16.703125 27.09375 16.703125 20.515625 
Q 16.703125 13.921875 20.71875 10.15625 
Q 24.75 6.390625 31.78125 6.390625 
Q 38.8125 6.390625 42.859375 10.171875 
Q 46.921875 13.96875 46.921875 20.515625 
Q 46.921875 27.09375 42.890625 30.859375 
Q 38.875 34.625 31.78125 34.625 
z
M 21.921875 38.8125 
Q 15.578125 40.375 12.03125 44.71875 
Q 8.5 49.078125 8.5 55.328125 
Q 8.5 64.0625 14.71875 69.140625 
Q 20.953125 74.21875 31.78125 74.21875 
Q 42.671875 74.21875 48.875 69.140625 
Q 55.078125 64.0625 55.078125 55.328125 
Q 55.078125 49.078125 51.53125 44.71875 
Q 48 40.375 41.703125 38.8125 
Q 48.828125 37.15625 52.796875 32.3125 
Q 56.78125 27.484375 56.78125 20.515625 
Q 56.78125 9.90625 50.3125 4.234375 
Q 43.84375 -1.421875 31.78125 -1.421875 
Q 19.734375 -1.421875 13.25 4.234375 
Q 6.78125 9.90625 6.78125 20.515625 
Q 6.78125 27.484375 10.78125 32.3125 
Q 14.796875 37.15625 21.921875 38.8125 
z
M 18.3125 54.390625 
Q 18.3125 48.734375 21.84375 45.5625 
Q 25.390625 42.390625 31.78125 42.390625 
Q 38.140625 42.390625 41.71875 45.5625 
Q 45.3125 48.734375 45.3125 54.390625 
Q 45.3125 60.0625 41.71875 63.234375 
Q 38.140625 66.40625 31.78125 66.40625 
Q 25.390625 66.40625 21.84375 63.234375 
Q 18.3125 60.0625 18.3125 54.390625 
z
" id="DejaVuSans-38"/>
      </defs>
      <g transform="translate(325.604801 322.182437)scale(0.1 -0.1)">
       <use xlink:href="#DejaVuSans-30"/>
       <use x="63.623047" xlink:href="#DejaVuSans-2e"/>
       <use x="95.410156" xlink:href="#DejaVuSans-38"/>
      </g>
     </g>
    </g>
    <g id="xtick_6">
     <g id="line2d_6">
      <g>
       <use style="stroke:#000000;stroke-width:0.8;" x="398.487273" xlink:href="#ma545e59b07" y="307.584"/>
      </g>
     </g>
     <g id="text_6">
      <!-- 1.0 -->
      <defs>
       <path d="M 12.40625 8.296875 
L 28.515625 8.296875 
L 28.515625 63.921875 
L 10.984375 60.40625 
L 10.984375 69.390625 
L 28.421875 72.90625 
L 38.28125 72.90625 
L 38.28125 8.296875 
L 54.390625 8.296875 
L 54.390625 0 
L 12.40625 0 
z
" id="DejaVuSans-31"/>
      </defs>
      <g transform="translate(390.53571 322.182437)scale(0.1 -0.1)">
       <use xlink:href="#DejaVuSans-31"/>
       <use x="63.623047" xlink:href="#DejaVuSans-2e"/>
       <use x="95.410156" xlink:href="#DejaVuSans-30"/>
      </g>
     </g>
    </g>
    <g id="text_7">
     <!-- x -->
     <defs>
      <path d="M 54.890625 54.6875 
L 35.109375 28.078125 
L 55.90625 0 
L 45.3125 0 
L 29.390625 21.484375 
L 13.484375 0 
L 2.875 0 
L 24.125 28.609375 
L 4.6875 54.6875 
L 15.28125 54.6875 
L 29.78125 35.203125 
L 44.28125 54.6875 
z
" id="DejaVuSans-78"/>
     </defs>
     <g transform="translate(233.200625 335.860562)scale(0.1 -0.1)">
      <use xlink:href="#DejaVuSans-78"/>
     </g>
    </g>
   </g>
   <g id="matplotlib.axis_2">
    <g id="ytick_1">
     <g id="line2d_7">
      <defs>
       <path d="M 0 0 
L -3.5 0 
" id="m1aca89c800" style="stroke:#000000;stroke-width:0.8;"/>
      </defs>
      <g>
       <use style="stroke:#000000;stroke-width:0.8;" x="57.6" xlink:href="#m1aca89c800" y="286.818026"/>
      </g>
     </g>
     <g id="text_8">
      <!-- −1.0 -->
      <defs>
       <path d="M 10.59375 35.5 
L 73.1875 35.5 
L 73.1875 27.203125 
L 10.59375 27.203125 
z
" id="DejaVuSans-2212"/>
      </defs>
      <g transform="translate(26.317187 290.617245)scale(0.1 -0.1)">
       <use xlink:href="#DejaVuSans-2212"/>
       <use x="83.789062" xlink:href="#DejaVuSans-31"/>
       <use x="147.412109" xlink:href="#DejaVuSans-2e"/>
       <use x="179.199219" xlink:href="#DejaVuSans-30"/>
      </g>
     </g>
    </g>
    <g id="ytick_2">
     <g id="line2d_8">
      <g>
       <use style="stroke:#000000;stroke-width:0.8;" x="57.6" xlink:href="#m1aca89c800" y="231.098925"/>
      </g>
     </g>
     <g id="text_9">
      <!-- −0.5 -->
      <defs>
       <path d="M 10.796875 72.90625 
L 49.515625 72.90625 
L 49.515625 64.59375 
L 19.828125 64.59375 
L 19.828125 46.734375 
Q 21.96875 47.46875 24.109375 47.828125 
Q 26.265625 48.1875 28.421875 48.1875 
Q 40.625 48.1875 47.75 41.5 
Q 54.890625 34.8125 54.890625 23.390625 
Q 54.890625 11.625 47.5625 5.09375 
Q 40.234375 -1.421875 26.90625 -1.421875 
Q 22.3125 -1.421875 17.546875 -0.640625 
Q 12.796875 0.140625 7.71875 1.703125 
L 7.71875 11.625 
Q 12.109375 9.234375 16.796875 8.0625 
Q 21.484375 6.890625 26.703125 6.890625 
Q 35.15625 6.890625 40.078125 11.328125 
Q 45.015625 15.765625 45.015625 23.390625 
Q 45.015625 31 40.078125 35.4375 
Q 35.15625 39.890625 26.703125 39.890625 
Q 22.75 39.890625 18.8125 39.015625 
Q 14.890625 38.140625 10.796875 36.28125 
z
" id="DejaVuSans-35"/>
      </defs>
      <g transform="translate(26.317187 234.898144)scale(0.1 -0.1)">
       <use xlink:href="#DejaVuSans-2212"/>
       <use x="83.789062" xlink:href="#DejaVuSans-30"/>
       <use x="147.412109" xlink:href="#DejaVuSans-2e"/>
       <use x="179.199219" xlink:href="#DejaVuSans-35"/>
      </g>
     </g>
    </g>
    <g id="ytick_3">
     <g id="line2d_9">
      <g>
       <use style="stroke:#000000;stroke-width:0.8;" x="57.6" xlink:href="#m1aca89c800" y="175.379824"/>
      </g>
     </g>
     <g id="text_10">
      <!-- 0.0 -->
      <g transform="translate(34.696875 179.179043)scale(0.1 -0.1)">
       <use xlink:href="#DejaVuSans-30"/>
       <use x="63.623047" xlink:href="#DejaVuSans-2e"/>
       <use x="95.410156" xlink:href="#DejaVuSans-30"/>
      </g>
     </g>
    </g>
    <g id="ytick_4">
     <g id="line2d_10">
      <g>
       <use style="stroke:#000000;stroke-width:0.8;" x="57.6" xlink:href="#m1aca89c800" y="119.660724"/>
      </g>
     </g>
     <g id="text_11">
      <!-- 0.5 -->
      <g transform="translate(34.696875 123.459942)scale(0.1 -0.1)">
       <use xlink:href="#DejaVuSans-30"/>
       <use x="63.623047" xlink:href="#DejaVuSans-2e"/>
       <use x="95.410156" xlink:href="#DejaVuSans-35"/>
      </g>
     </g>
    </g>
    <g id="ytick_5">
     <g id="line2d_11">
      <g>
       <use style="stroke:#000000;stroke-width:0.8;" x="57.6" xlink:href="#m1aca89c800" y="63.941623"/>
      </g>
     </g>
     <g id="text_12">
      <!-- 1.0 -->
      <g transform="translate(34.696875 67.740841)scale(0.1 -0.1)">
       <use xlink:href="#DejaVuSans-31"/>
       <use x="63.623047" xlink:href="#DejaVuSans-2e"/>
       <use x="95.410156" xlink:href="#DejaVuSans-30"/>
      </g>
     </g>
    </g>
    <g id="text_13">
     <!-- y -->
     <defs>
      <path d="M 32.171875 -5.078125 
Q 28.375 -14.84375 24.75 -17.8125 
Q 21.140625 -20.796875 15.09375 -20.796875 
L 7.90625 -20.796875 
L 7.90625 -13.28125 
L 13.1875 -13.28125 
Q 16.890625 -13.28125 18.9375 -11.515625 
Q 21 -9.765625 23.484375 -3.21875 
L 25.09375 0.875 
L 2.984375 54.6875 
L 12.5 54.6875 
L 29.59375 11.921875 
L 46.6875 54.6875 
L 56.203125 54.6875 
z
" id="DejaVuSans-79"/>
     </defs>
     <g transform="translate(20.2375 177.487375)rotate(-90)scale(0.1 -0.1)">
      <use xlink:href="#DejaVuSans-79"/>
     </g>
    </g>
   </g>
   <g id="line2d_12">
    <path clip-path="url(#pbcf8d00ebf)" d="M 73.832727 175.379824 
L 86.181949 148.998924 
L 92.68154 135.623946 
L 98.206192 124.741108 
L 103.080885 115.614999 
L 107.630598 107.575304 
L 111.855332 100.579024 
L 115.755086 94.563503 
L 119.329861 89.452701 
L 122.579656 85.16267 
L 125.829451 81.229398 
L 128.754267 78.007367 
L 131.679083 75.09725 
L 134.603898 72.508368 
L 137.203735 70.483546 
L 139.803571 68.724232 
L 142.403407 67.234879 
L 145.003243 66.019256 
L 147.2781 65.182567 
L 149.552957 64.559441 
L 151.827813 64.151085 
L 154.10267 63.958291 
L 156.377527 63.981432 
L 158.652383 64.220464 
L 160.92724 64.674923 
L 163.202097 65.343928 
L 165.476953 66.226184 
L 168.07679 67.493386 
L 170.676626 69.033665 
L 173.276462 70.843121 
L 175.876298 72.917175 
L 178.801114 75.5602 
L 181.72593 78.522978 
L 184.650745 81.796017 
L 187.900541 85.78383 
L 191.150336 90.125945 
L 194.725111 95.290958 
L 198.299885 100.83916 
L 202.19964 107.29753 
L 206.424373 114.730323 
L 210.974087 123.186568 
L 216.173759 133.342074 
L 222.023391 145.270145 
L 229.49792 161.051402 
L 252.571466 210.182537 
L 258.421097 221.919116 
L 263.62077 231.855929 
L 268.170483 240.085185 
L 272.395217 247.279021 
L 276.294971 253.494141 
L 279.869746 258.801454 
L 283.444521 263.709631 
L 286.694316 267.805456 
L 289.944111 271.535788 
L 292.868927 274.568368 
L 295.793743 277.283218 
L 298.718559 279.67164 
L 301.318395 281.514435 
L 303.918231 283.088588 
L 306.518067 284.390115 
L 309.117903 285.415721 
L 311.39276 286.084726 
L 313.667617 286.539185 
L 315.942473 286.778217 
L 318.21733 286.801358 
L 320.492187 286.608564 
L 322.767043 286.200208 
L 325.0419 285.577082 
L 327.316757 284.740393 
L 329.591613 283.691762 
L 332.19145 282.236433 
L 334.791286 280.510635 
L 337.391122 278.518735 
L 339.990958 276.265776 
L 342.915774 273.426274 
L 345.84059 270.2727 
L 349.090385 266.412693 
L 352.34018 262.192701 
L 355.914955 257.154885 
L 359.48973 251.725812 
L 363.389484 245.387531 
L 367.614218 238.072445 
L 372.163931 229.727672 
L 377.038624 220.321327 
L 382.563276 209.182257 
L 389.387846 194.903401 
L 398.487273 175.379824 
L 398.487273 175.379824 
" style="fill:none;stroke:#1f77b4;stroke-linecap:square;stroke-width:1.5;"/>
   </g>
   <g id="line2d_13">
    <defs>
     <path d="M 0 3 
C 0.795609 3 1.55874 2.683901 2.12132 2.12132 
C 2.683901 1.55874 3 0.795609 3 0 
C 3 -0.795609 2.683901 -1.55874 2.12132 -2.12132 
C 1.55874 -2.683901 0.795609 -3 0 -3 
C -0.795609 -3 -1.55874 -2.683901 -2.12132 -2.12132 
C -2.683901 -1.55874 -3 -0.795609 -3 0 
C -3 0.795609 -2.683901 1.55874 -2.12132 2.12132 
C -1.55874 2.683901 -0.795609 3 0 3 
z
" id="m0bebf10f7e" style="stroke:#ff7f0e;"/>
    </defs>
    <g clip-path="url(#pbcf8d00ebf)">
     <use style="fill:#ff7f0e;stroke:#ff7f0e;" x="283.500673" xlink:href="#m0bebf10f7e" y="262.680629"/>
     <use style="fill:#ff7f0e;stroke:#ff7f0e;" x="293.03109" xlink:href="#m0bebf10f7e" y="285.489235"/>
     <use style="fill:#ff7f0e;stroke:#ff7f0e;" x="388.976189" xlink:href="#m0bebf10f7e" y="198.121217"/>
     <use style="fill:#ff7f0e;stroke:#ff7f0e;" x="361.088486" xlink:href="#m0bebf10f7e" y="231.16978"/>
     <use style="fill:#ff7f0e;stroke:#ff7f0e;" x="368.965085" xlink:href="#m0bebf10f7e" y="231.029566"/>
     <use style="fill:#ff7f0e;stroke:#ff7f0e;" x="341.215927" xlink:href="#m0bebf10f7e" y="256.794424"/>
     <use style="fill:#ff7f0e;stroke:#ff7f0e;" x="231.845251" xlink:href="#m0bebf10f7e" y="181.839272"/>
     <use style="fill:#ff7f0e;stroke:#ff7f0e;" x="275.441116" xlink:href="#m0bebf10f7e" y="239.238132"/>
     <use style="fill:#ff7f0e;stroke:#ff7f0e;" x="282.751973" xlink:href="#m0bebf10f7e" y="260.570746"/>
     <use style="fill:#ff7f0e;stroke:#ff7f0e;" x="203.814527" xlink:href="#m0bebf10f7e" y="118.168624"/>
     <use style="fill:#ff7f0e;stroke:#ff7f0e;" x="357.97659" xlink:href="#m0bebf10f7e" y="257.163644"/>
     <use style="fill:#ff7f0e;stroke:#ff7f0e;" x="271.419579" xlink:href="#m0bebf10f7e" y="238.081153"/>
     <use style="fill:#ff7f0e;stroke:#ff7f0e;" x="108.473364" xlink:href="#m0bebf10f7e" y="110.54949"/>
     <use style="fill:#ff7f0e;stroke:#ff7f0e;" x="156.395265" xlink:href="#m0bebf10f7e" y="60.060734"/>
     <use style="fill:#ff7f0e;stroke:#ff7f0e;" x="85.348223" xlink:href="#m0bebf10f7e" y="145.155824"/>
     <use style="fill:#ff7f0e;stroke:#ff7f0e;" x="236.537972" xlink:href="#m0bebf10f7e" y="186.115608"/>
     <use style="fill:#ff7f0e;stroke:#ff7f0e;" x="274.288957" xlink:href="#m0bebf10f7e" y="242.328432"/>
     <use style="fill:#ff7f0e;stroke:#ff7f0e;" x="176.305483" xlink:href="#m0bebf10f7e" y="100.617211"/>
     <use style="fill:#ff7f0e;stroke:#ff7f0e;" x="184.264708" xlink:href="#m0bebf10f7e" y="72.964668"/>
     <use style="fill:#ff7f0e;stroke:#ff7f0e;" x="138.707855" xlink:href="#m0bebf10f7e" y="86.340437"/>
     <use style="fill:#ff7f0e;stroke:#ff7f0e;" x="397.740586" xlink:href="#m0bebf10f7e" y="195.087226"/>
     <use style="fill:#ff7f0e;stroke:#ff7f0e;" x="303.307854" xlink:href="#m0bebf10f7e" y="288.107349"/>
     <use style="fill:#ff7f0e;stroke:#ff7f0e;" x="107.027285" xlink:href="#m0bebf10f7e" y="96.106799"/>
     <use style="fill:#ff7f0e;stroke:#ff7f0e;" x="370.290602" xlink:href="#m0bebf10f7e" y="239.352515"/>
     <use style="fill:#ff7f0e;stroke:#ff7f0e;" x="74.176593" xlink:href="#m0bebf10f7e" y="173.014395"/>
     <use style="fill:#ff7f0e;stroke:#ff7f0e;" x="370.758383" xlink:href="#m0bebf10f7e" y="219.45263"/>
     <use style="fill:#ff7f0e;stroke:#ff7f0e;" x="365.053628" xlink:href="#m0bebf10f7e" y="233.634298"/>
     <use style="fill:#ff7f0e;stroke:#ff7f0e;" x="310.22407" xlink:href="#m0bebf10f7e" y="281.496006"/>
     <use style="fill:#ff7f0e;stroke:#ff7f0e;" x="176.103682" xlink:href="#m0bebf10f7e" y="58.800821"/>
     <use style="fill:#ff7f0e;stroke:#ff7f0e;" x="308.209311" xlink:href="#m0bebf10f7e" y="284.220923"/>
     <use style="fill:#ff7f0e;stroke:#ff7f0e;" x="282.044626" xlink:href="#m0bebf10f7e" y="254.675368"/>
     <use style="fill:#ff7f0e;stroke:#ff7f0e;" x="137.953931" xlink:href="#m0bebf10f7e" y="76.054013"/>
     <use style="fill:#ff7f0e;stroke:#ff7f0e;" x="176.949056" xlink:href="#m0bebf10f7e" y="53.568"/>
     <use style="fill:#ff7f0e;stroke:#ff7f0e;" x="111.930967" xlink:href="#m0bebf10f7e" y="106.344585"/>
     <use style="fill:#ff7f0e;stroke:#ff7f0e;" x="102.837311" xlink:href="#m0bebf10f7e" y="110.7675"/>
     <use style="fill:#ff7f0e;stroke:#ff7f0e;" x="122.143681" xlink:href="#m0bebf10f7e" y="87.085092"/>
     <use style="fill:#ff7f0e;stroke:#ff7f0e;" x="219.811184" xlink:href="#m0bebf10f7e" y="142.769342"/>
     <use style="fill:#ff7f0e;stroke:#ff7f0e;" x="120.790506" xlink:href="#m0bebf10f7e" y="87.929353"/>
     <use style="fill:#ff7f0e;stroke:#ff7f0e;" x="381.562807" xlink:href="#m0bebf10f7e" y="192.206754"/>
     <use style="fill:#ff7f0e;stroke:#ff7f0e;" x="107.074772" xlink:href="#m0bebf10f7e" y="111.504976"/>
     <use style="fill:#ff7f0e;stroke:#ff7f0e;" x="329.925491" xlink:href="#m0bebf10f7e" y="295.488"/>
     <use style="fill:#ff7f0e;stroke:#ff7f0e;" x="358.961067" xlink:href="#m0bebf10f7e" y="248.704735"/>
     <use style="fill:#ff7f0e;stroke:#ff7f0e;" x="90.324562" xlink:href="#m0bebf10f7e" y="126.970919"/>
     <use style="fill:#ff7f0e;stroke:#ff7f0e;" x="218.166396" xlink:href="#m0bebf10f7e" y="129.543703"/>
     <use style="fill:#ff7f0e;stroke:#ff7f0e;" x="367.195569" xlink:href="#m0bebf10f7e" y="221.303425"/>
     <use style="fill:#ff7f0e;stroke:#ff7f0e;" x="191.605643" xlink:href="#m0bebf10f7e" y="87.62041"/>
     <use style="fill:#ff7f0e;stroke:#ff7f0e;" x="194.35286" xlink:href="#m0bebf10f7e" y="89.462878"/>
     <use style="fill:#ff7f0e;stroke:#ff7f0e;" x="389.27635" xlink:href="#m0bebf10f7e" y="189.492473"/>
     <use style="fill:#ff7f0e;stroke:#ff7f0e;" x="242.566183" xlink:href="#m0bebf10f7e" y="195.651508"/>
     <use style="fill:#ff7f0e;stroke:#ff7f0e;" x="79.152303" xlink:href="#m0bebf10f7e" y="177.414128"/>
    </g>
   </g>
   <g id="line2d_14">
    <path clip-path="url(#pbcf8d00ebf)" d="M 73.832727 147.223382 
L 78.057461 143.908036 
L 82.282195 140.291378 
L 86.506929 136.365391 
L 90.731663 132.130317 
L 95.281376 127.235917 
L 100.156069 121.640053 
L 105.680721 114.930225 
L 112.83027 105.86416 
L 124.204554 91.431245 
L 129.079247 85.637609 
L 132.979001 81.334544 
L 136.553776 77.728112 
L 139.803571 74.785101 
L 142.728387 72.447998 
L 145.328223 70.643761 
L 147.928059 69.116669 
L 150.202916 68.021273 
L 152.477772 67.161134 
L 154.752629 66.544777 
L 157.027486 66.17921 
L 159.302342 66.069881 
L 161.252219 66.183094 
L 163.202097 66.488956 
L 165.476953 67.090148 
L 167.75181 67.954137 
L 170.026667 69.079164 
L 172.301523 70.462097 
L 174.57638 72.098538 
L 177.176216 74.271986 
L 179.776052 76.759274 
L 182.375889 79.548889 
L 185.300704 83.032582 
L 188.22552 86.862835 
L 191.475315 91.499433 
L 195.05009 97.027666 
L 198.624865 102.964216 
L 202.524619 109.857175 
L 207.074333 118.378664 
L 211.949025 127.991116 
L 217.798657 140.045799 
L 224.948206 155.315392 
L 249.64665 208.545671 
L 255.496282 220.356254 
L 260.370975 229.725769 
L 264.920688 238.005328 
L 269.145422 245.235477 
L 273.045176 251.477272 
L 276.619951 256.805438 
L 280.194726 261.733392 
L 283.444521 265.848379 
L 286.694316 269.600998 
L 289.619132 272.657842 
L 292.543948 275.402205 
L 295.468763 277.826418 
L 298.0686 279.706939 
L 300.668436 281.324774 
L 303.268272 282.676127 
L 305.868108 283.757712 
L 308.142965 284.480623 
L 310.417821 284.993375 
L 312.692678 285.294814 
L 314.967535 285.38416 
L 317.242391 285.261027 
L 319.517248 284.925455 
L 321.792105 284.377942 
L 324.066962 283.619476 
L 326.341818 282.651571 
L 328.941654 281.291616 
L 331.541491 279.664858 
L 334.141327 277.776382 
L 336.741163 275.632377 
L 339.665979 272.924105 
L 342.590794 269.913933 
L 345.84059 266.232399 
L 349.090385 262.217574 
L 352.66516 257.445942 
L 356.564914 251.857884 
L 360.789648 245.412659 
L 365.664341 237.561829 
L 371.838952 227.15778 
L 385.163112 204.076505 
L 392.312662 192.010688 
L 397.837314 183.125978 
L 398.487273 182.113182 
L 398.487273 182.113182 
" style="fill:none;stroke:#ff0000;stroke-dasharray:5.55,2.4;stroke-dashoffset:0;stroke-width:1.5;"/>
   </g>
   <g id="patch_3">
    <path d="M 57.6 307.584 
L 57.6 41.472 
" style="fill:none;stroke:#000000;stroke-linecap:square;stroke-linejoin:miter;stroke-width:0.8;"/>
   </g>
   <g id="patch_4">
    <path d="M 414.72 307.584 
L 414.72 41.472 
" style="fill:none;stroke:#000000;stroke-linecap:square;stroke-linejoin:miter;stroke-width:0.8;"/>
   </g>
   <g id="patch_5">
    <path d="M 57.6 307.584 
L 414.72 307.584 
" style="fill:none;stroke:#000000;stroke-linecap:square;stroke-linejoin:miter;stroke-width:0.8;"/>
   </g>
   <g id="patch_6">
    <path d="M 57.6 41.472 
L 414.72 41.472 
" style="fill:none;stroke:#000000;stroke-linecap:square;stroke-linejoin:miter;stroke-width:0.8;"/>
   </g>
   <g id="text_14">
    <!-- Best Fit -->
    <defs>
     <path d="M 19.671875 34.8125 
L 19.671875 8.109375 
L 35.5 8.109375 
Q 43.453125 8.109375 47.28125 11.40625 
Q 51.125 14.703125 51.125 21.484375 
Q 51.125 28.328125 47.28125 31.5625 
Q 43.453125 34.8125 35.5 34.8125 
z
M 19.671875 64.796875 
L 19.671875 42.828125 
L 34.28125 42.828125 
Q 41.5 42.828125 45.03125 45.53125 
Q 48.578125 48.25 48.578125 53.8125 
Q 48.578125 59.328125 45.03125 62.0625 
Q 41.5 64.796875 34.28125 64.796875 
z
M 9.8125 72.90625 
L 35.015625 72.90625 
Q 46.296875 72.90625 52.390625 68.21875 
Q 58.5 63.53125 58.5 54.890625 
Q 58.5 48.1875 55.375 44.234375 
Q 52.25 40.28125 46.1875 39.3125 
Q 53.46875 37.75 57.5 32.78125 
Q 61.53125 27.828125 61.53125 20.40625 
Q 61.53125 10.640625 54.890625 5.3125 
Q 48.25 0 35.984375 0 
L 9.8125 0 
z
" id="DejaVuSans-42"/>
     <path d="M 56.203125 29.59375 
L 56.203125 25.203125 
L 14.890625 25.203125 
Q 15.484375 15.921875 20.484375 11.0625 
Q 25.484375 6.203125 34.421875 6.203125 
Q 39.59375 6.203125 44.453125 7.46875 
Q 49.3125 8.734375 54.109375 11.28125 
L 54.109375 2.78125 
Q 49.265625 0.734375 44.1875 -0.34375 
Q 39.109375 -1.421875 33.890625 -1.421875 
Q 20.796875 -1.421875 13.15625 6.1875 
Q 5.515625 13.8125 5.515625 26.8125 
Q 5.515625 40.234375 12.765625 48.109375 
Q 20.015625 56 32.328125 56 
Q 43.359375 56 49.78125 48.890625 
Q 56.203125 41.796875 56.203125 29.59375 
z
M 47.21875 32.234375 
Q 47.125 39.59375 43.09375 43.984375 
Q 39.0625 48.390625 32.421875 48.390625 
Q 24.90625 48.390625 20.390625 44.140625 
Q 15.875 39.890625 15.1875 32.171875 
z
" id="DejaVuSans-65"/>
     <path d="M 44.28125 53.078125 
L 44.28125 44.578125 
Q 40.484375 46.53125 36.375 47.5 
Q 32.28125 48.484375 27.875 48.484375 
Q 21.1875 48.484375 17.84375 46.4375 
Q 14.5 44.390625 14.5 40.28125 
Q 14.5 37.15625 16.890625 35.375 
Q 19.28125 33.59375 26.515625 31.984375 
L 29.59375 31.296875 
Q 39.15625 29.25 43.1875 25.515625 
Q 47.21875 21.78125 47.21875 15.09375 
Q 47.21875 7.46875 41.1875 3.015625 
Q 35.15625 -1.421875 24.609375 -1.421875 
Q 20.21875 -1.421875 15.453125 -0.5625 
Q 10.6875 0.296875 5.421875 2 
L 5.421875 11.28125 
Q 10.40625 8.6875 15.234375 7.390625 
Q 20.0625 6.109375 24.8125 6.109375 
Q 31.15625 6.109375 34.5625 8.28125 
Q 37.984375 10.453125 37.984375 14.40625 
Q 37.984375 18.0625 35.515625 20.015625 
Q 33.0625 21.96875 24.703125 23.78125 
L 21.578125 24.515625 
Q 13.234375 26.265625 9.515625 29.90625 
Q 5.8125 33.546875 5.8125 39.890625 
Q 5.8125 47.609375 11.28125 51.796875 
Q 16.75 56 26.8125 56 
Q 31.78125 56 36.171875 55.265625 
Q 40.578125 54.546875 44.28125 53.078125 
z
" id="DejaVuSans-73"/>
     <path d="M 18.3125 70.21875 
L 18.3125 54.6875 
L 36.8125 54.6875 
L 36.8125 47.703125 
L 18.3125 47.703125 
L 18.3125 18.015625 
Q 18.3125 11.328125 20.140625 9.421875 
Q 21.96875 7.515625 27.59375 7.515625 
L 36.8125 7.515625 
L 36.8125 0 
L 27.59375 0 
Q 17.1875 0 13.234375 3.875 
Q 9.28125 7.765625 9.28125 18.015625 
L 9.28125 47.703125 
L 2.6875 47.703125 
L 2.6875 54.6875 
L 9.28125 54.6875 
L 9.28125 70.21875 
z
" id="DejaVuSans-74"/>
     <path id="DejaVuSans-20"/>
     <path d="M 9.8125 72.90625 
L 51.703125 72.90625 
L 51.703125 64.59375 
L 19.671875 64.59375 
L 19.671875 43.109375 
L 48.578125 43.109375 
L 48.578125 34.8125 
L 19.671875 34.8125 
L 19.671875 0 
L 9.8125 0 
z
" id="DejaVuSans-46"/>
     <path d="M 9.421875 54.6875 
L 18.40625 54.6875 
L 18.40625 0 
L 9.421875 0 
z
M 9.421875 75.984375 
L 18.40625 75.984375 
L 18.40625 64.59375 
L 9.421875 64.59375 
z
" id="DejaVuSans-69"/>
    </defs>
    <g transform="translate(213.503437 35.472)scale(0.12 -0.12)">
     <use xlink:href="#DejaVuSans-42"/>
     <use x="68.603516" xlink:href="#DejaVuSans-65"/>
     <use x="130.126953" xlink:href="#DejaVuSans-73"/>
     <use x="182.226562" xlink:href="#DejaVuSans-74"/>
     <use x="221.435547" xlink:href="#DejaVuSans-20"/>
     <use x="253.222656" xlink:href="#DejaVuSans-46"/>
     <use x="310.632812" xlink:href="#DejaVuSans-69"/>
     <use x="338.416016" xlink:href="#DejaVuSans-74"/>
    </g>
   </g>
  </g>
 </g>
 <defs>
  <clipPath id="pbcf8d00ebf">
   <rect height="266.112" width="357.12" x="57.6" y="41.472"/>
  </clipPath>
 </defs>
</svg>
